<svg xmlns="http://www.w3.org/2000/svg" width="194.707" height="77.674" viewBox="0 0 194.707 77.674">
  <g id="Logotype" transform="translate(-192 -360)">
    <g id="Group_25" data-name="Group 25" transform="translate(192 360)">
      <g id="Group_24" data-name="Group 24" transform="translate(70.562 17.01)">
        <path id="Path_1487" data-name="Path 1487" d="M313.753,581.488V571.36h7.791V599.1h-7.791V588.422H304.21V599.1h-7.791V571.36h7.791v10.128Z" transform="translate(-296.419 -571.36)" fill="#23374d"/>
        <path id="Path_1488" data-name="Path 1488" d="M323.2,591.72a12.288,12.288,0,0,1-15.815,0,11.488,11.488,0,0,1,0-15.309,12.417,12.417,0,0,1,15.815,0,11.479,11.479,0,0,1,0,15.309Zm-7.908-12.543q-3.623,0-3.623,4.911t3.623,4.9q3.623,0,3.623-4.9T315.288,579.177Z" transform="translate(-278.36 -566.4)" fill="#23374d"/>
        <path id="Path_1489" data-name="Path 1489" d="M324.654,573.568a6.709,6.709,0,0,1,5.028,1.967,7.712,7.712,0,0,1,1.909,5.59v13.011h-7.168V582.644c0-2-.912-3-2.727-3a3.1,3.1,0,0,0-2.262.876,3.315,3.315,0,0,0-.9,2.477v11.138h-7.168v-20.1h7.012v2.649A7.582,7.582,0,0,1,324.654,573.568Z" transform="translate(-262.835 -566.4)" fill="#23374d"/>
        <path id="Path_1490" data-name="Path 1490" d="M339.382,584.865v1.285H324.654a3.759,3.759,0,0,0,4.016,3.389,3.8,3.8,0,0,0,3.545-1.753h6.7a8.122,8.122,0,0,1-3.619,5.025,12.171,12.171,0,0,1-6.622,1.792,10.822,10.822,0,0,1-7.83-2.883,11.275,11.275,0,0,1-.042-15.27,10.692,10.692,0,0,1,7.791-2.883,10.584,10.584,0,0,1,7.83,3Q339.378,579.567,339.382,584.865Zm-10.871-6.233a3.613,3.613,0,0,0-3.856,3.276h7.833A3.707,3.707,0,0,0,328.51,578.632Z" transform="translate(-248.304 -566.4)" fill="#23374d"/>
        <path id="Path_1491" data-name="Path 1491" d="M334.6,594.762q-5.069,0-7.463-1.636a6.676,6.676,0,0,1-2.665-5.376h6.93a2.572,2.572,0,0,0,.919,1.905,4.2,4.2,0,0,0,2.435.545q2.839,0,2.84-1.516a1.283,1.283,0,0,0-.662-1.152,7.085,7.085,0,0,0-2.376-.682l-2.883-.428q-6.973-1.013-6.973-6.268a5.559,5.559,0,0,1,2.477-4.892q2.469-1.695,7.184-1.695,9.349,0,9.777,6.973h-6.583q-.078-2.41-3.194-2.412c-1.766,0-2.649.5-2.649,1.516a1.172,1.172,0,0,0,.565,1.055,5.4,5.4,0,0,0,1.931.545l3.425.464A10.066,10.066,0,0,1,343,583.774a6.066,6.066,0,0,1-.919,9.255Q339.431,594.757,334.6,594.762Z" transform="translate(-233.399 -566.4)" fill="#23374d"/>
        <path id="Path_1492" data-name="Path 1492" d="M344.2,577.917v5.064h-3.779v8.025c0,.756.162,1.24.487,1.461a3.445,3.445,0,0,0,1.811.331h1.48v5.22a29.746,29.746,0,0,1-3.038.195q-4.246,0-6.077-1.48t-1.831-4.869v-8.882h-2.844v-5.064h2.844V571.84h7.168v6.077Z" transform="translate(-220.059 -570.282)" fill="#23374d"/>
        <path id="Path_1493" data-name="Path 1493" d="M313.753,591.488V581.36h7.791V609.1h-7.791V598.422H304.21V609.1h-7.791V581.36h7.791v10.128Z" transform="translate(-296.419 -548.898)" fill="#23374d"/>
        <path id="Path_1494" data-name="Path 1494" d="M326,594.865v1.285H311.276a3.759,3.759,0,0,0,4.012,3.389,3.8,3.8,0,0,0,3.548-1.753h6.7a8.123,8.123,0,0,1-3.619,5.025,12.174,12.174,0,0,1-6.625,1.792,10.827,10.827,0,0,1-7.83-2.883,11.271,11.271,0,0,1-.039-15.27,11.846,11.846,0,0,1,15.624.117Q326,589.567,326,594.865Zm-10.871-6.233a3.611,3.611,0,0,0-3.856,3.276h7.833A3.707,3.707,0,0,0,315.132,588.632Z" transform="translate(-278.36 -543.939)" fill="#23374d"/>
        <path id="Path_1495" data-name="Path 1495" d="M332.539,604.136h-7.21a5.952,5.952,0,0,1-.5-2.061q-2.069,2.527-6.392,2.529a8.182,8.182,0,0,1-5.353-1.675,5.62,5.62,0,0,1-2.045-4.6,5.284,5.284,0,0,1,1.909-4.379q1.909-1.543,6.116-1.889l3.233-.273a4.021,4.021,0,0,0,1.847-.51,1.327,1.327,0,0,0,.568-1.169c0-1.061-.847-1.594-2.532-1.594a4.037,4.037,0,0,0-2.2.445,2.284,2.284,0,0,0-.8,1.695h-7.093a6.791,6.791,0,0,1,2.749-5.337q2.474-1.753,7.421-1.753,9.466,0,9.463,6.314v10.631A6.144,6.144,0,0,0,332.539,604.136Zm-11.65-4.129q3.817,0,3.821-3.775v-1.172a2.621,2.621,0,0,1-1.8.783l-2.3.23c-1.529.159-2.3.818-2.3,1.987a1.716,1.716,0,0,0,.682,1.425A3.052,3.052,0,0,0,320.888,600.007Z" transform="translate(-263.587 -543.939)" fill="#23374d"/>
        <path id="Path_1496" data-name="Path 1496" d="M324.947,609.1h-7.167V581.36h7.167Z" transform="translate(-248.441 -548.898)" fill="#23374d"/>
        <path id="Path_1497" data-name="Path 1497" d="M333.9,587.917v5.064h-3.778v8.025c0,.756.162,1.24.49,1.461a3.422,3.422,0,0,0,1.808.331h1.48v5.22a29.716,29.716,0,0,1-3.035.195q-4.246,0-6.077-1.48t-1.834-4.869v-8.882h-2.844v-5.064h2.844V581.84h7.168v6.077Z" transform="translate(-243.212 -547.82)" fill="#23374d"/>
        <path id="Path_1498" data-name="Path 1498" d="M337.876,588.527a6.691,6.691,0,0,1,5.025,1.967,7.7,7.7,0,0,1,1.909,5.59V609.1h-7.168V597.6q0-3-2.727-3a3.1,3.1,0,0,0-2.259.877,3.313,3.313,0,0,0-.893,2.477V609.1H324.6V581.36h7.167v10.092A7.59,7.59,0,0,1,337.876,588.527Z" transform="translate(-233.129 -548.898)" fill="#23374d"/>
      </g>
      <path id="Path_1499" data-name="Path 1499" d="M301.81,611.332V584.2h9.041v9.044h9.044V584.2h9.044v-9.04h-9.044V566.12h-9.044v9.044H301.81v9.04H292.77v9.044h-9.044V584.2h-9.044v27.128h9.044v-9.044h9.044v9.044Zm9.041-9.044v9.044h9.044v-9.044Z" transform="translate(-274.682 -566.12)" fill="#1089ff" fill-rule="evenodd"/>
    </g>
  </g>
</svg>
