<?xml version="1.0" encoding="utf-8"?>
<!-- Generator: Adobe Illustrator 24.1.0, SVG Export Plug-In . SVG Version: 6.00 Build 0)  -->
<svg version="1.1" id="Layer_1" xmlns="http://www.w3.org/2000/svg" xmlns:xlink="http://www.w3.org/1999/xlink" x="0px" y="0px"
	 viewBox="0 0 900 287.74" style="enable-background:new 0 0 900 287.74;" xml:space="preserve">
<style type="text/css">
	path,polygon{fill:white;}
	.st0{fill:#F4DB42;}
</style>
<g>
	<g>
		<g>
			<g>
				<g>
					<g>
						<polygon id="SVGID_16_" points="77.66,31.61 32.7,31.61 32.7,54.22 75.75,54.22 75.75,80.11 32.7,80.11 32.7,127.25 0,127.25 
							0,4.09 77.66,4.09 						"/>
					</g>
				</g>
				<g>
					<g>
						<path id="SVGID_15_" d="M155.59,0c40.6,0,64.85,31.34,64.85,65.67c0,35.69-27.79,65.67-65.12,65.67
							c-45.23,0-65.4-35.15-65.4-65.67C89.65,30.52,117.17,0,155.59,0L155.59,0z M155.04,102.18c18.53,0,32.43-15.8,32.43-36.51
							c0-20.16-12.53-36.51-32.15-36.51c-18.53,0-32.7,15.8-32.7,36.51C122.62,86.1,136.51,102.18,155.04,102.18L155.04,102.18z"/>
					</g>
				</g>
				<g>
					<g>
						<path id="SVGID_14_" d="M235.42,78.47V4.09h32.43v76.29c0,15.8,5.72,23.43,15.8,23.43c13.08,0,16.08-10.63,16.08-23.43V4.09
							h32.15V78.2c0,37.33-19.07,52.86-47.96,52.86C255.59,131.06,235.42,117.17,235.42,78.47L235.42,78.47z"/>
					</g>
				</g>
				<g>
					<g>
						<path id="SVGID_13_" d="M379.29,51.5c0.27,5.18,0.82,16.89,0.82,22.07v53.68h-26.98V4.09h27.25l30.79,49.05
							c9.54,15.26,11.99,21.8,15.26,27.52h0.54c-0.27-5.45-0.54-14.99-0.54-19.89V3.81h26.98v123.16h-26.98l-26.16-41.69
							c-12.81-20.44-16.35-28.07-19.89-34.06L379.29,51.5L379.29,51.5L379.29,51.5L379.29,51.5z"/>
					</g>
				</g>
				<g>
					<g>
						<path id="SVGID_12_" d="M519.89,4.09c44.41,0,68.12,28.07,68.12,61.58s-25.07,61.58-68.39,61.58h-43.05V4.09H519.89
							L519.89,4.09z M518.26,98.91c25.89,0,37.06-15.26,37.06-33.51c0-19.62-11.99-33.51-37.06-33.51h-9.26v66.76L518.26,98.91
							L518.26,98.91L518.26,98.91z"/>
					</g>
				</g>
				<g>
					<g>
						<polygon id="SVGID_11_" points="682.29,31.61 637.33,31.61 637.33,50.68 680.65,50.68 680.65,76.57 637.33,76.57 
							637.33,99.46 684.2,99.46 684.2,127.25 605.18,127.25 605.18,4.09 682.29,4.09 						"/>
					</g>
				</g>
				<g>
					<g>
						<path id="SVGID_10_" d="M809.81,127.25h-37.6l-31.34-46.59h-3.27v46.59h-32.43V4.09h40.05c36.78,0,49.59,16.35,49.59,38.42
							c0,17.71-10.08,28.61-22.89,33.24L809.81,127.25L809.81,127.25z M746.59,29.16h-8.99v29.43h8.99c8.99,0,15.26-4.9,15.26-14.44
							C762.13,34.88,756.68,29.16,746.59,29.16L746.59,29.16z"/>
					</g>
				</g>
				<g>
					<g>
						<path id="SVGID_9_" d="M868.66,40.33c0-8.99-4.36-14.44-12.26-14.44c-5.45,0-10.08,3.54-10.08,9.81
							c0,7.63,8.17,11.17,20.16,15.26C890.46,59.4,900,73.84,900,92.1c0,17.98-12.53,38.96-43.6,38.96
							c-26.98,0-44.14-16.62-44.14-43.6h30.52c0,10.63,4.09,17.98,13.9,17.98c6.81,0,11.99-4.36,11.99-11.44
							c0-8.17-5.72-12.26-19.62-17.17c-25.61-8.99-33.51-24.52-33.51-40.33c0-23.16,19.07-36.24,41.42-36.24
							c25.34,0,41.42,15.26,41.42,40.33L868.66,40.33L868.66,40.33L868.66,40.33z"/>
					</g>
				</g>
				<g>
					<g>
						<polygon id="SVGID_8_" points="77.66,188.01 32.7,188.01 32.7,210.9 75.75,210.9 75.75,236.78 32.7,236.78 32.7,283.65 
							0,283.65 0,160.49 77.66,160.49 						"/>
					</g>
				</g>
				<g>
					<g>
						<path id="SVGID_7_" d="M123.98,160.49h30.52l43.32,123.16H165.4l-7.9-24.8h-40.05l-7.9,24.8H77.38L123.98,160.49
							L123.98,160.49z M124.25,237.33h26.43l-8.45-26.43c-2.45-7.08-3-9.81-4.09-14.99h-1.09c-1.36,5.45-2.45,9.26-4.36,15.26
							L124.25,237.33L124.25,237.33z"/>
					</g>
				</g>
				<g>
					<g>
						<path id="SVGID_6_" d="M325.34,204.36h-34.6c-1.63-10.35-11.44-20.44-25.89-20.44c-20.16,0-31.06,17.44-31.06,38.15
							c0,20.16,12.26,38.42,31.34,38.42c16.62,0,24.52-12.26,26.7-22.62h35.69c-5.72,26.43-27.25,49.86-62.94,49.86
							c-38.15,0-63.49-28.61-63.49-65.94s26.7-65.12,64.03-65.12C299.73,156.4,322.07,180.93,325.34,204.36L325.34,204.36z"/>
					</g>
				</g>
				<g>
					<g>
						<polygon id="SVGID_5_" points="358.58,188.01 330.79,188.01 330.79,160.49 418.53,160.49 418.53,188.01 391.01,188.01 
							391.01,283.65 358.58,283.65 						"/>
					</g>
				</g>
				<g>
					<g>
						<path id="SVGID_4_" d="M488.56,156.4c40.6,0,64.85,31.34,64.85,65.67c0,35.69-27.79,65.67-65.12,65.67
							c-45.23,0-65.4-35.15-65.4-65.67C422.89,186.92,450.41,156.4,488.56,156.4L488.56,156.4z M488.01,258.58
							c18.53,0,32.43-15.8,32.43-36.51c0-20.16-12.53-36.51-32.15-36.51c-18.53,0-32.7,15.8-32.7,36.51
							C455.86,242.78,469.75,258.58,488.01,258.58L488.01,258.58z"/>
					</g>
				</g>
				<g>
					<g>
						<path id="SVGID_3_" d="M674.93,283.65h-37.6l-31.34-46.59h-3.27v46.59H570.3V160.49h40.05c36.78,0,49.59,16.35,49.59,38.42
							c0,17.71-10.08,28.61-22.89,33.24L674.93,283.65L674.93,283.65z M611.72,185.56h-8.99v29.43h8.99
							c8.99,0,15.26-4.9,15.26-14.44C627.25,191.28,621.53,185.56,611.72,185.56L611.72,185.56z"/>
					</g>
				</g>
				<g>
					<g>
						<path id="SVGID_2_" d="M706.27,235.15l-40.87-74.66h34.88l16.35,31.61c2.72,5.18,4.9,11.17,6.54,16.08h0.27
							c1.63-5.18,3.81-10.35,6.54-15.8l15.26-31.88h34.06l-40.33,74.66v48.5h-32.43L706.27,235.15L706.27,235.15L706.27,235.15z"/>
					</g>
				</g>
				<g>
					<g>
						<path id="SVGID_1_" class="st0" d="M806.54,283.92c-15.26,0-27.52-12.26-27.52-27.52s12.26-27.52,27.52-27.52
							s27.52,12.26,27.52,27.52C834.06,271.39,821.8,283.92,806.54,283.92L806.54,283.92z"/>
					</g>
				</g>
			</g>
		</g>
	</g>
</g>
</svg>
