<?xml version="1.0" encoding="UTF-8"?>
<svg width="25px" height="25px" viewBox="0 0 25 25" version="1.1" xmlns="http://www.w3.org/2000/svg" xmlns:xlink="http://www.w3.org/1999/xlink">
    <!-- Generator: Sketch 59.1 (86144) - https://sketch.com -->
    <title>54300</title>
    <desc>Created with Sketch.</desc>
    <g id="Symbols" stroke="none" stroke-width="1" fill="none" fill-rule="evenodd" opacity="0.272832961">
        <g id="footer" transform="translate(-1262.000000, -175.000000)" fill="#000000" fill-rule="nonzero">
            <g id="54300" transform="translate(1262.000000, 175.000000)">
                <path d="M25,12.5 C25,5.59656863 19.4033905,0 12.5,0 C5.59656863,0 0,5.59656863 0,12.5 C0,19.4033905 5.59656863,25 12.5,25 C19.4033905,25 25,19.4033905 25,12.5 Z M5.7693219,16.9420343 C5.98525327,16.9693219 6.2056781,16.9840686 6.42843137,16.9840686 C7.72275327,16.9863562 8.91364379,16.519281 9.85796569,15.7352124 C8.64885621,15.7068219 7.62957516,14.8522876 7.27843137,13.6795343 C7.44660948,13.7147467 7.62050654,13.7352124 7.79775327,13.7363971 C8.05004085,13.7375 8.29321895,13.7033905 8.52504085,13.6375 C7.26139706,13.3579657 6.30915033,12.1591095 6.30915033,10.7306781 C6.30915033,10.7181781 6.30915033,10.7056781 6.30915033,10.6931781 C6.68186275,10.9181781 7.10686275,11.0545343 7.56025327,11.075 C6.82050654,10.5397467 6.33300654,9.6306781 6.33300654,8.60792484 C6.33300654,8.06703431 6.46936275,7.56245915 6.70686275,7.13063725 C8.06936275,8.93178105 10.1045752,10.1272059 12.3988971,10.2760621 C12.3511846,10.0613154 12.3272876,9.8374183 12.3272876,9.60902778 C12.3272876,7.9942402 13.5636846,6.70563725 15.0886846,6.73063725 C15.8829657,6.74428105 16.6011438,7.10902778 17.104616,7.68178105 C17.7341503,7.56131536 18.3250408,7.32949346 18.8580065,7.00563725 C18.6523284,7.67949346 18.2137255,8.24084967 17.6432598,8.59199346 C18.2023693,8.52949346 18.7341503,8.38178105 19.229616,8.15792484 C18.8591912,8.73406863 18.3909722,9.23745915 17.8512255,9.63974673 C17.8569036,9.76474673 17.8591503,9.88974673 17.8591503,10.0147467 C17.8591503,13.8488562 15.080719,18.2704248 10.0011846,18.2681393 C8.4431781,18.269281 6.99093137,17.7806781 5.7693219,16.9420343 Z" id="Shape"></path>
            </g>
        </g>
    </g>
</svg>